<?xml version="1.0" encoding="UTF-8"?>
<svg id="Layer_7_copy" data-name="Layer 7 copy" xmlns="http://www.w3.org/2000/svg" viewBox="0 0 880 380">
  <defs>
    <style>
      .cls-1 {
        stroke-linejoin: bevel;
      }

      .cls-1, .cls-2, .cls-3, .cls-4 {
        stroke: #fff;
      }

      .cls-1, .cls-3 {
        stroke-width: 5px;
      }

      .cls-1, .cls-3, .cls-4 {
        fill: none;
        stroke-linecap: round;
      }

      .cls-5 {
        letter-spacing: -.05em;
      }

      .cls-6 {
        letter-spacing: -.06em;
      }

      .cls-2 {
        fill: #fff;
        font-family: BlackMango-Regular, 'Black Mango';
        font-size: 169.83px;
      }

      .cls-2, .cls-3 {
        stroke-miterlimit: 10;
      }

      .cls-7 {
        letter-spacing: -.09em;
      }

      .cls-8 {
        letter-spacing: -.12em;
      }

      .cls-9 {
        letter-spacing: -.08em;
      }

      .cls-4 {
        stroke-linejoin: round;
        stroke-width: 3px;
      }
    </style>
  </defs>
  <g id="Layer_1_copy" data-name="Layer 1 copy">
    <g>
      <path class="cls-4" d="m416.52,242.21c-.13-3.42,2.86-4.89,4.59-7.09,4.16-5.27,4.31-8.3.63-13.65-3.51-5.1-7.97-9.33-12.39-13.56-13.32-12.75-23.65-27.62-31.82-44.06,0,0,31.87,36.8,42.18,42.19s7.86,1.85,7.86,1.85c-3.9-5.61-7.82-11.21-11.69-16.84-7.38-10.73-10.26-22.92-10.98-35.62-.82-14.47,1.8-28.87,1.31-43.39-.66-19.71-9.46-34.17-26-44.81-10.75-6.91-21.19-4.86-31.89-1.08-3.06,1.08-5.74,3.23-8.5,4.83-.13,6.65,3.62,11.01,7.82,15.15,8.9,8.8,17.16,18.11,22.06,29.8,4.24,10.13,6.09,20.84,5.1,31.71-.92,10.05-7.4,16.66-16.8,19.28-11.27,3.14-21.72,8.07-32.52,12.27-7.62,2.96-15.95,4.08-23.97,6.02l-24.69,4.53c11.48-.38,22.88-4.79,34.68-.86-3.34,11.26-6.6,22.27-9.89,33.35,3.64,4.09,9.45,5.7,12.99,10.22-2.24,3.07-4.44,6.07-6.62,9.06,6.02,12.54,15.35,22.5,24.08,33.28,2.55-5.86,2.79-11.17,3.18-16.4.83-10.99,2.57-21.86,1.55-33.04-1.12-12.27-3.24-24.59,1.33-37.05,1.48-4.04,2.65-9.7,1.08-14.74"/>
      <path class="cls-4" d="m196.22,99.73c8.67-3.3,16.61.25,24.7,2.58,16.85,4.85,25.06,17.27,30.01,33,2.11,6.7,5,13.28,8.44,19.41,7.4,13.2,6.85,27.26,5.89,42.02,11.43,12.79,20.27,27.52,24.61,44.8,2.57,10.25,2.72,20.03-3.34,29.14-3.5,5.26-4.03,12.27-9.72,16.21"/>
      <path class="cls-4" d="m132.54,176.8c-2.23-7.7.67-14.82,2.65-22,.74-2.68,2.29-5.14,3.12-7.81.43-1.38.7-3.84-.02-4.38-6.46-4.82-5.99-12.51-7.48-18.96-4.8-20.78-18.91-33.6-43.11-33.82-18.59-.17-34.19,6.48-47.96,17.84-6.26,5.16-9.44,12.01-8.88,21.24,0,0,1.17,15.05,1.17,20.24s-2.7,5.94-3.47,12.13c-.8,6.54,2.06,13.36,1.95,12.94,2.55,8.06,8.45,28.65,16.25,28.5,18.2.16,40.31-14.33,44.2-40.19-8.87-10.76-17.67-21.62-26.69-32.3-3.8-4.5-8.19-8.21-14.23-9.83-8.08-2.17-13.76.75-18.22,7.21"/>
      <path class="cls-4" d="m137.73,189.75c.87,1.94,1.8,3.86,2.59,5.83,1.99,4.95,4.72,9.78,5.65,14.93,1.11,6.12-4.99,9.51-7.76,14.11-5.74,9.51-10.03,19.16-8.96,30.55.12,1.28-.29,2.6-.53,4.49-10.42-4.57-20.55-9.01-31.23-13.69-3.29,4.21-6.6,8.56-9.92,13.03-3.96,5.33-7.74,10.6-11.36,15.79"/>
      <path class="cls-4" d="m335.29,172.27c-11.99-9.45-16.38-22.92-20.29-36.88-1.96-6.99-1.89-20.93-2.24-27.84,0,0,3.26-15.98,11.63-22.9s12-5,12-5l-25.37,27.9s0-15.6,3.47-20.79,8.2-9.28,10.4-11.63c1.05-1.11,2.07-2.28,3.26-3.22,6.28-4.93,6.56-6.25,3.26-12.98-2.3-4.68-4.82-9.34-6.43-14.27-3.31-10.12-10.76-16.1-20.3-18.53-14.09-3.59-27.57.57-37.92,9.9-5.12,4.61-7.52,13.16-9.22,20.38-3.18,13.5-1.94,27.18.89,40.78.85,4.11,1.69,8.41,1,12.94-.91,5.99.05,12.11,1.51,18.36,1.34.84,3.23,1.37,4.99,2.76,4.31,3.39,9.47,4.46,15.45,3.69,8.24-1.06,15.92-4.02,23.95-5.71,2.3-.48,4.62-.54,6.89-.99"/>
      <path class="cls-4" d="m185.82,51.16c-4.99-2.32-4.65-7.69-6.36-11.71-4.62-10.87-9.45-21.03-21.53-25.97-12.67-5.18-24.68-5.89-37.18.58-4.58,2.37-6.77,4.97-6.36,9.87-7.67,2.09-10.33,8.31-12.35,14.93-1.29,4.25-2.53,8.25-5.78,11.74-6.02,6.47-3.71,14.87-3.91,22.57-.08,3.22.86,6.46,1.39,10.04,3.44,1.33,7.04,3.38,10.88,4.1,17.22,3.21,23.88,16.23,29.19,30.56,1.33,3.58,1.79,7.53,3.43,10.92,1.07,2.2-1.51,6.24,3.71,6.88,1.64.2.48,3.84-1.26,5.49"/>
      <path class="cls-4" d="m193.62,132.76c-7.77,8.91-16.53,16.97-22.79,27.17-2.49,4.05-3.45,8.26-3.98,12.97-2.34,20.87,8.73,37.03,18.32,53.77.92,1.61,3.04,2.91,1.3,5.18"/>
      <path class="cls-4" d="m244.31,207.24c.78-10.02.26-20.24-2.24-29.71-5.29-20.06-13.37-38.62-36.07-45.51-7.33-2.22-14.31-1.05-20.74,1.59-8.97,3.69-17.06,9.2-23.71,15.57-1.36,8.82-1.03,17.26-1.06,25.68-.08,18.69,6.91,34.96,17.64,49.8,2.48,3.43,4.72,7.02,9.49,8.9,2.85,1.12,4.86,5.72,6.93,9.14,9.46,15.6,14.93,32.79,18.87,50.11,5.08,22.34,12.62,44.04,16.61,66.62"/>
      <path class="cls-4" d="m63,257.1c1.87-4.34-.55-8.25-1.33-12.3-2.31-11.99-3.78-24.05-3.17-36.07-23.76-7.04-42.86,7.3-48.92,25.65-1.78,5.39-4.39,10.5-5.07,16.23"/>
      <path class="cls-4" d="m241.06,172.27c3.55-7.36.13-14.58-1.57-21.3-5-19.83-19.14-32.99-35.51-44.05-.34-.23-1.26.38-1.91.59"/>
      <path class="cls-4" d="m112.39,215.66c-10.29,12.7-21.55,24.71-29.79,38.92-3.4,5.87-7.45,11.86-5.95,19.37"/>
      <path class="cls-4" d="m243.01,207.89c2.77,2.67,3.23,3.56,3.23,7.77,0,15.8.69,31.65-2.53,47.29-.16.79.38,1.72.6,2.58,8.78-2.28,14.82-10.42,16.21-22.02.17-1.44-.21-2.95,1.34-3.88"/>
      <path class="cls-4" d="m233.26,55.05c2.76,5.66,1.62,11.77,1.09,17.47-1.15,12.2-3.38,24.28,3.41,35.67.23.38-.38,1.26-.59,1.91"/>
      <path class="cls-4" d="m242.36,209.18c-6.05,15.32-16.27,26.25-32.47,31.15-5.41,1.63-10.42-.37-15.61-.71"/>
      <path class="cls-4" d="m141.63,222.78c5.47,5.87,14.04,10.15,9.86,20.77-1.15,2.91,2.49,5.3,2.52,8.73-.34.4-.72,1.18-1.35,1.56-12.22,7.41-21.95,17.89-33.1,26.61-10.91,8.53-15,20.73-17.57,33.65"/>
      <path class="cls-4" d="m157.88,288.19c6.46-9.35,12.86-18.74,13.73-31.35,8.1,5.65,15.57,10.49,22.61,15.88,6.14,4.7,10.44,11.03,13.76,18.04,1.32,2.8,2.08,6.09,5.15,7.8"/>
      <path class="cls-4" d="m96.79,165.14c7.62,5.03,13.06,12.07,16.76,20.14,3.93,8.57,4.51,17.64.14,26.49"/>
      <path class="cls-4" d="m250.81,43.39c-1-13.88-4.48-26.69-16.97-34.86-3.4-2.22-7.72-4.02-11.62-.11"/>
      <path class="cls-4" d="m261.85,236.38c4.81,9.87,10.79,19.34,12.25,30.45,1.15,8.79,3.48,17.69.1,26.54"/>
      <path class="cls-4" d="m130.59,178.1c-1.9,3.66-1.91,7.74-2.56,11.66-1.79,10.94-1.3,22-1.37,33.02,0,.86-.41,1.73-.64,2.65-5.75-1.42-8.44-6.23-11.68-10.43"/>
      <path class="cls-4" d="m95.49,162.55c0,7.23,1.08,14.32,2.58,21.38,2.25,10.59,7.17,19.77,14.32,27.84"/>
      <path class="cls-4" d="m410.67,244.8c6.27-2.2,12.53-4.41,20.06-7.05-.17,7.01-1.69,13.17-3.13,19.37-2.04,8.73-6.06,16.92-7.18,25.9"/>
      <path class="cls-4" d="m202.72,130.82c3.91-12.17,1.35-21.84-7.1-28.55-3.53-2.8-6.87-2.67-9.74.12-11.45,11.14-18.88,24.66-22.74,40.11-.29,1.17.37,2.57.58,3.87"/>
      <path class="cls-4" d="m252.76,47.28c-8.77-8.66-14.75-19.23-20.85-29.76-2.87-4.96-7.44-8.07-12.73-9.9-3.76,1.88-6.75,4.31-9.4,7.49,2.11,3.29,4.79,5.24,9.16,5.79,5.45.68,12.7,10.91,12.82,17.97.04,2.48,0,4.71.71,7.16.64,2.19.14,4.71.14,7.08-13.05,12.44-22.81,13.45-34.9,12.26-1.31-3.08-2.75-6.36-4.08-9.67-1.93-4.82-2.2-9.83.73-14.18,3-4.46,2.11-9.65,3.74-14.33,1.55-4.46-3.09-5.36-5.5-7.18,8.72-13.3,14.94-16.24,25.07-12.22"/>
      <path class="cls-4" d="m115.64,22.02c10.21.37,17.27,5.54,22.12,14.24,2.92,5.24,6.04,10.37,9.08,15.55"/>
      <path class="cls-4" d="m148.13,53.11c6.1,12.3,13.33,23.92,21.49,34.94,5.3,7.17,13.02,8.58,21.4,7.8"/>
      <path class="cls-4" d="m260.55,107.5c1.52.21,1.41,1.64,2.06,2.51,5.64,7.59,8.92,8.12,18.79,4.76,2.28-.77,4.71-1.68,6.99-2.42,2.12-.69,5.01-2.61,6.51-2.16s10.12,7.65,10.12,7.65c-.75-8.81-5.69-15.76-9.33-23.31-4.33-8.97-6.06-18.55-6.63-28.47-.33-5.64-.93-11.46-2.66-16.79-2.92-9.03-11.05-11.45-21.29-7.17"/>
      <path class="cls-4" d="m199.47,66.71c.86,5.83,3.31,11.35,2.73,17.5-.32,3.38-.4,6.67-2.43,10.35h-7.44"/>
      <path class="cls-4" d="m311.24,129.52c-7.07,9.85-30.75,10.48-40.85,4.12"/>
      <path class="cls-4" d="m160.48,150.9c-10.48,8.87-17.12,20.5-23.39,32.38"/>
      <path class="cls-4" d="m135.78,268.11c14.22-.55,19.35,6.36,21.4,19.44.36,2.32.15,4.73-1.91,6.47"/>
      <path class="cls-4" d="m163.08,108.8c1.45-12.43-4.46-22.88-9.87-35.02.88-.49,2.13-1.19,3.38-1.89,0,0,9.75-15.46,8.01-20.66s-17.11,1.23-17.11,1.23c-1.73.22-3.87,1.2-5.14.53-12.11-6.4-23.33-13.83-28.01-27.73"/>
      <path class="cls-4" d="m133.19,178.1c2.73,5.1,4.21,9.88,2.97,16.26-1.6,8.21-.63,16.94,4.18,24.54"/>
      <path class="cls-4" d="m195.57,23.31c-7,5.74-7.93,13.77-8.48,22.02-.47,7.11.83,13.82,2.3,20.8,1.99,9.43,1.63,19.36,2.28,29.07"/>
      <path class="cls-4" d="m185.17,102.32c-3.37-1.9-6.19.36-9.08,1.34-13.22,4.52-21.78,14.63-29.91,25.21-1.5,1.95-3.03,3.89-4.55,5.83"/>
      <path class="cls-4" d="m216.37,21.37c4.77,7.12,9.53,14.25,14.3,21.37"/>
      <path class="cls-4" d="m67.55,277.18c-1.17-8.04-6.93-24.93-14.3-29.14s-18.63-8.05-20.79-8.42-5.2,0-5.2,0c7.75-3.63,17.66-4.56,19.67-15.45-2.67-8.5-13.17-12.65-20.1-10.92-1.73-25.99,1.73-77.98,5.37-95.11"/>
      <path class="cls-4" d="m211.82,18.78c-4.15,1.88-9.01-1.01-13,1.94"/>
      <path class="cls-4" d="m260.55,129.52c-2.65,2.15-5.77,2.99-9.1,3.24"/>
      <path class="cls-4" d="m196.22,66.06c-2.32,1.32-1.87,4.79-4.55,5.83"/>
    </g>
  </g>
  <g id="Layer_4_copy" data-name="Layer 4 copy">
    <path class="cls-3" d="m140.33,269.58s-64.12,34.66-84.91,45.06c-16.69,8.35-26.03-.67-27.73-5.2-5.2-13.86,6.55-28.27,43.32-31.19s60.65,5.2,77.98,22.53c17.33,17.33,16.85,38.13,17.33,38.12"/>
    <path class="cls-1" d="m360.41,318.1s-1.73-3.47-1.73-6.93v-84.91c0-24.26,17.98-24.49,17.98-24.49,0,0,14.51-1.41,14.73,23.67.22,49.34-51.89,90.93-83.02,90.06-17.27-.87-27.67-7.8-27.67-7.8"/>
  </g>
  <g id="Layer_6_copy" data-name="Layer 6 copy">
    <text class="cls-2" transform="translate(451.17 166.9)"><tspan class="cls-5" x="0" y="0">en</tspan><tspan class="cls-6" x="195.3" y="0">t</tspan><tspan class="cls-8" x="262.38" y="0">r</tspan><tspan class="cls-5" x="325.72" y="0">e</tspan><tspan class="cls-6" x="0" y="138.63">la</tspan><tspan class="cls-9" x="122.44" y="138.63">รง</tspan><tspan class="cls-7" x="209.39" y="138.63">o</tspan><tspan class="cls-5" x="300.59" y="138.63">s</tspan></text>
  </g>
</svg>